<svg xmlns="http://www.w3.org/2000/svg" width="28" height="28" fill="none">
  <g clip-path="url(#a)">
    <path fill="#3C3C43" fill-opacity=".6" d="M5.677 13.646c0 .263.114.527.316.72l5.8 5.792c.212.202.44.299.695.299.554 0 .958-.396.958-.932a.933.933 0 0 0-.29-.694l-1.977-2.004-2.55-2.329 2.049.123H21.33c.58 0 .985-.404.985-.976 0-.58-.405-.984-.985-.984H10.678l-2.04.123 2.54-2.329 1.978-2.004a.934.934 0 0 0 .29-.694c0-.536-.404-.932-.958-.932-.255 0-.492.097-.72.317l-5.775 5.774a1.012 1.012 0 0 0-.316.73Z"/>
  </g>
  <defs>
    <clipPath id="a">
      <path fill="#fff" d="M0 0h28v28H0z"/>
    </clipPath>
  </defs>
</svg>
